<?xml version="1.0" standalone="no"?><svg xmlns="http://www.w3.org/2000/svg" viewBox="0 0 1440 320"><path fill="#aaaaaa" fill-opacity="1" d="M0,192L40,165.3C80,139,160,85,240,85.3C320,85,400,139,480,181.3C560,224,640,256,720,240C800,224,880,160,960,154.7C1040,149,1120,203,1200,229.3C1280,256,1360,256,1400,256L1440,256L1440,320L1400,320C1360,320,1280,320,1200,320C1120,320,1040,320,960,320C880,320,800,320,720,320C640,320,560,320,480,320C400,320,320,320,240,320C160,320,80,320,40,320L0,320Z"></path></svg>